<svg xmlns="http://www.w3.org/2000/svg" viewBox="0 0 72.52 24.42"><defs><style>.cls-1{fill:#0d2142;}.cls-2{font-size:1.37px;font-family:Times-Bold, Times;}.cls-2,.cls-3{fill:#fff;}.cls-2,.cls-8{font-weight:700;}.cls-4,.cls-5,.cls-7{fill:none;stroke-miterlimit:10;}.cls-4,.cls-5{stroke:#be1e2d;}.cls-5{stroke-width:0.94px;}.cls-6,.cls-8{fill:#0c2141;}.cls-7{stroke:#21409a;stroke-width:0.17px;}.cls-8{font-size:6.32px;font-family:HelveticaNeue-Bold, Helvetica Neue;}.cls-9{letter-spacing:-0.04em;}.cls-10{letter-spacing:0em;}</style></defs><g id="Layer_2" data-name="Layer 2"><g id="Layer_1-2" data-name="Layer 1"><circle class="cls-1" cx="12.24" cy="12.39" r="10.34"/><text class="cls-2" transform="translate(7.21 19.47) rotate(-141.65) scale(0.99 1)">D</text><text class="cls-2" transform="matrix(-0.7, -0.7, 0.7, -0.71, 6.41, 18.83)">E</text><text class="cls-2" transform="matrix(-0.63, -0.77, 0.77, -0.63, 5.75, 18.17)">P</text><text class="cls-2" transform="matrix(-0.55, -0.82, 0.83, -0.55, 5.25, 17.56)">A</text><text class="cls-2" transform="matrix(-0.45, -0.88, 0.89, -0.46, 4.69, 16.74)">R</text><text class="cls-2" transform="matrix(-0.36, -0.92, 0.93, -0.36, 4.25, 15.87)">T</text><text class="cls-2" transform="translate(3.89 14.97) rotate(-103.45) scale(0.99 1)">M</text><text class="cls-2" transform="matrix(-0.11, -0.99, 0.99, -0.11, 3.61, 13.71)">E</text><text class="cls-2" transform="matrix(0.01, -0.99, 1, 0.01, 3.5, 12.75)">N</text><text class="cls-2" transform="matrix(0.12, -0.98, 0.99, 0.12, 3.52, 11.74)">T</text><text class="cls-2" transform="matrix(0.2, -0.97, 0.98, 0.2, 3.65, 10.82)"> </text><text class="cls-2" transform="translate(3.71 10.43) rotate(-73.6) scale(0.99 1)">O</text><text class="cls-2" transform="matrix(0.38, -0.91, 0.92, 0.39, 4.02, 9.39)">F</text><text class="cls-2" transform="translate(4.35 8.64) rotate(-63.38) scale(0.99 1)"> </text><text class="cls-2" transform="matrix(0.52, -0.85, 0.85, 0.52, 4.51, 8.29)">C</text><text class="cls-2" transform="matrix(0.61, -0.78, 0.78, 0.62, 5.03, 7.43)">O</text><text class="cls-2" transform="matrix(0.72, -0.68, 0.69, 0.72, 5.71, 6.56)">M</text><text class="cls-2" transform="matrix(0.81, -0.57, 0.57, 0.82, 6.67, 5.66)">M</text><text class="cls-2" transform="translate(7.76 4.91) rotate(-27.17) scale(0.99 1)">U</text><text class="cls-2" transform="translate(8.67 4.45) rotate(-20.52) scale(0.99 1)">N</text><text class="cls-2" transform="matrix(0.96, -0.26, 0.27, 0.96, 9.62, 4.11)">I</text><text class="cls-2" transform="translate(10.17 3.95) rotate(-10.39) scale(0.99 1)">T</text><text class="cls-2" transform="translate(11.1 3.78) rotate(-3.97) scale(0.99 1)">Y</text><text class="cls-2" transform="translate(12.09 3.72) rotate(0.41) scale(0.99 1)"> </text><text class="cls-2" transform="translate(12.44 3.72) rotate(4.11) scale(0.99 1)">S</text><text class="cls-2" transform="translate(13.24 3.77) rotate(9.81) scale(0.99 1)">E</text><text class="cls-2" transform="translate(14.18 3.94) rotate(16.26) scale(0.99 1)">R</text><text class="cls-2" transform="matrix(0.92, 0.38, -0.38, 0.92, 15.1, 4.2)">V</text><text class="cls-2" transform="matrix(0.88, 0.46, -0.46, 0.89, 16.05, 4.61)">I</text><text class="cls-2" transform="translate(16.58 4.87) rotate(32.89) scale(0.99 1)">C</text><text class="cls-2" transform="translate(17.42 5.42) rotate(39.23) scale(0.99 1)">E</text><text class="cls-2" transform="translate(18.14 6.03) rotate(43.58) scale(0.99 1)"> </text><text class="cls-2" transform="matrix(0.67, 0.73, -0.74, 0.67, 18.38, 6.24)">A</text><text class="cls-2" transform="matrix(0.58, 0.81, -0.81, 0.58, 19.07, 7)">N</text><text class="cls-2" transform="translate(19.66 7.83) rotate(61.11) scale(0.99 1)">D</text><text class="cls-2" transform="matrix(0.41, 0.9, -0.91, 0.41, 20.14, 8.73)"> </text><text class="cls-2" transform="translate(20.31 9.08) rotate(70.34) scale(0.99 1)">D</text><text class="cls-2" transform="matrix(0.23, 0.96, -0.97, 0.23, 20.65, 10.03)">E</text><text class="cls-2" transform="translate(20.86 10.94) rotate(83.17) scale(0.99 1)">V</text><text class="cls-2" transform="matrix(0, 0.99, -1, 0, 20.98, 11.97)">E</text><text class="cls-2" transform="translate(20.98 12.91) rotate(96.21) scale(0.99 1)">L</text><text class="cls-2" transform="translate(20.88 13.84) rotate(102.92) scale(0.99 1)">O</text><text class="cls-2" transform="translate(20.62 14.92) rotate(109.52) scale(0.99 1)">P</text><text class="cls-2" transform="matrix(-0.44, 0.89, -0.89, -0.45, 20.35, 15.73)">M</text><text class="cls-2" transform="matrix(-0.56, 0.82, -0.83, -0.56, 19.75, 16.9)">E</text><text class="cls-2" transform="matrix(-0.65, 0.75, -0.76, -0.65, 19.21, 17.69)">N</text><text class="cls-2" transform="translate(18.55 18.45) rotate(137.33) scale(0.99 1)">T</text><text/><circle class="cls-3" cx="12.24" cy="12.39" r="8.09"/><line class="cls-4" x1="4.58" y1="14.67" x2="19.9" y2="14.67"/><line class="cls-5" x1="7.78" y1="5.97" x2="16.56" y2="5.97"/><line class="cls-5" x1="5.9" y1="7.88" x2="18.41" y2="7.88"/><line class="cls-5" x1="4.92" y1="9.9" x2="19.38" y2="9.9"/><line class="cls-4" x1="4.16" y1="12.14" x2="20.21" y2="12.14"/><polygon class="cls-6" points="6.61 15.83 5.56 16.37 5.92 16.9 6.27 17.36 6.94 18.07 7.46 18.52 7.84 18.81 8.13 19.01 8.46 19.21 8.87 19.43 9.33 19.64 9.72 19.79 10 19.88 10.15 19.93 10.31 19.97 10.45 20.01 10.57 20.04 10.7 20.06 10.81 20.09 10.92 20.11 11.04 20.13 11.18 20.15 11.32 20.17 11.46 20.18 11.65 20.2 11.82 20.21 12.03 20.22 12.24 20.22 12.4 20.22 12.6 20.21 12.8 20.2 12.99 20.19 13.17 20.17 13.33 20.14 13.52 20.11 13.69 20.08 13.86 20.05 14.03 20.01 14.22 19.96 14.42 19.9 14.62 19.84 14.8 19.77 14.97 19.71 15.16 19.63 15.38 19.54 15.58 19.44 15.81 19.32 16.05 19.18 16.24 19.07 16.49 18.91 17.14 18.42 17.76 17.85 18.11 17.47 18.36 17.16 18.59 16.87 18.86 16.46 19.05 16.14 19.16 15.96 18.14 15.63 13.92 15.09 7.88 15.59 6.61 15.83"/><polygon class="cls-3" points="8.73 17.93 8.79 18.27 8.49 18.11 8.19 18.26 8.25 17.93 8.01 17.69 8.34 17.64 8.49 17.34 8.64 17.65 8.98 17.7 8.73 17.93"/><polygon class="cls-3" points="9.87 16.47 9.93 16.8 9.63 16.64 9.32 16.8 9.38 16.46 9.14 16.23 9.48 16.18 9.63 15.88 9.78 16.18 10.12 16.23 9.87 16.47"/><polygon class="cls-3" points="11.5 17.78 11.55 18.12 11.26 17.96 10.95 18.11 11.01 17.78 10.77 17.54 11.11 17.5 11.26 17.19 11.41 17.5 11.74 17.55 11.5 17.78"/><polygon class="cls-3" points="13.87 17.72 13.93 18.05 13.63 17.89 13.33 18.05 13.39 17.72 13.15 17.48 13.48 17.43 13.63 17.13 13.78 17.43 14.12 17.48 13.87 17.72"/><polygon class="cls-3" points="16.13 17.93 16.19 18.27 15.89 18.11 15.59 18.26 15.64 17.93 15.4 17.69 15.74 17.64 15.89 17.34 16.04 17.65 16.38 17.7 16.13 17.93"/><polygon class="cls-3" points="7.32 16.61 7.38 16.94 7.08 16.78 6.78 16.94 6.84 16.6 6.6 16.36 6.93 16.32 7.08 16.02 7.23 16.32 7.57 16.37 7.32 16.61"/><polygon class="cls-3" points="12.88 16.18 12.94 16.51 12.64 16.35 12.34 16.51 12.39 16.18 12.15 15.94 12.49 15.89 12.64 15.59 12.79 15.89 13.12 15.95 12.88 16.18"/><polygon class="cls-3" points="18.05 16.61 18.11 16.94 17.81 16.78 17.51 16.94 17.57 16.6 17.33 16.36 17.66 16.32 17.82 16.02 17.96 16.32 18.3 16.37 18.05 16.61"/><polygon class="cls-3" points="15.55 16.59 15.61 16.92 15.31 16.76 15.01 16.92 15.06 16.59 14.82 16.35 15.16 16.3 15.31 16 15.46 16.3 15.79 16.35 15.55 16.59"/><polygon class="cls-3" points="12.78 19.09 12.84 19.42 12.54 19.26 12.24 19.42 12.3 19.08 12.06 18.84 12.39 18.8 12.54 18.5 12.69 18.8 13.03 18.85 12.78 19.09"/><polygon class="cls-3" points="14.84 19.09 14.9 19.42 14.6 19.26 14.3 19.42 14.36 19.08 14.12 18.84 14.45 18.8 14.61 18.5 14.75 18.8 15.09 18.85 14.84 19.09"/><polygon class="cls-3" points="10.36 19.09 10.41 19.42 10.11 19.26 9.81 19.42 9.87 19.08 9.63 18.84 9.96 18.8 10.12 18.5 10.27 18.8 10.6 18.85 10.36 19.09"/><path class="cls-1" d="M15.8,12.86a9.23,9.23,0,0,0-6.74,0c.15-.53.26-1.1.46-1.64a3,3,0,0,1,1.7-1.67.46.46,0,0,0,.15-.6.27.27,0,0,1,0-.45,4.45,4.45,0,0,1,.43-.26A.28.28,0,0,0,12,8.06a3.53,3.53,0,0,0,0-.56c0-.18.11-.22.22-.25s.22-.11.23-.28a2.17,2.17,0,0,1,.11-.66c0,.24,0,.48.07.72s0,.17.16.2.36.07.23.35a1.59,1.59,0,0,0,0,.44c0,.06-.06.11-.07.15a4.62,4.62,0,0,1,.6.29c.21.14.19.27,0,.49a.94.94,0,0,0,0,.35l-.52,0a2.83,2.83,0,0,0-.5,0,3.65,3.65,0,0,1,1.68.5,2.9,2.9,0,0,1,1.41,1.93C15.6,12.1,15.71,12.49,15.8,12.86Z"/><path class="cls-1" d="M16.86,14.86l-.06-.22h0v.78a3.09,3.09,0,0,1-.4-.14.21.21,0,0,1-.08-.16c0-.19,0-.38,0-.58s0-.37-.33-.47v1.07c-.34-.05-.34-.05-.34-.39v-.56c0-.36,0-.38-.37-.44a1.61,1.61,0,0,1,.08.38c0,.28,0,.57,0,.86-.4,0-.4,0-.4-.37a5.93,5.93,0,0,1,0-.73.27.27,0,0,0-.28-.34.19.19,0,0,1-.1,0,1.08,1.08,0,0,1,.09.29c0,.35,0,.71,0,1.08l-.39-.06V13.47l-.39-.08a1.08,1.08,0,0,1,.1.35c0,.35,0,.7,0,1.07l-.39,0V13.36l-.47,0c.19.07.2.21.19.37,0,.36,0,.71,0,1.07h-.39V13.31l-.28,0v1.45h-.39V13.31H12v1.43H11.6a2.67,2.67,0,0,1,.11-1.42l-.42,0v1.43l-.39,0c0-.42,0-.82,0-1.21,0-.07.09-.14.14-.21l-.42.08v1.37l-.4.06a5.11,5.11,0,0,1,.08-1.36l-.17,0c-.14,0-.19.08-.19.23,0,.37,0,.74,0,1.12l-.4.08c0-.37,0-.72,0-1.06,0-.08.12-.16.17-.23s0,0,0,0c-.43.14-.43.14-.43.6v.42c0,.36,0,.36-.4.42C9,14.77,8.74,14.37,9,14c-.36.12-.41.18-.41.53v.25c0,.46,0,.46-.48.6v-.79h0L8,14.84a.89.89,0,0,1,.07-.94,2.12,2.12,0,0,1,.83-.71,6.42,6.42,0,0,1,2.34-.67,9.13,9.13,0,0,1,3.92.34,3.2,3.2,0,0,1,1.48.85A1,1,0,0,1,16.86,14.86Zm-6.09-1.93a11.36,11.36,0,0,1,3.54,0A8.13,8.13,0,0,0,10.77,12.93Z"/><circle class="cls-7" cx="12.24" cy="12.39" r="10.65"/><text class="cls-8" transform="translate(25 11.37)">DCSD<tspan class="cls-9"><tspan x="0" y="7.59">W</tspan><tspan class="cls-10" x="5.73" y="7.59">ashington-DC</tspan></tspan></text></g></g></svg>