<svg xmlns="http://www.w3.org/2000/svg" viewBox="0 0 72.35 24.42"><defs><style>.cls-1{fill:#0d2142;}.cls-2{font-size:1.37px;font-family:Times-Bold, Times;}.cls-2,.cls-3{fill:#fff;}.cls-2,.cls-9{font-weight:700;}.cls-4,.cls-5,.cls-6,.cls-8{fill:none;stroke-miterlimit:10;}.cls-4,.cls-5,.cls-6{stroke:#be1e2d;}.cls-5{stroke-width:0.94px;}.cls-6{stroke-width:0.96px;}.cls-7,.cls-9{fill:#0c2141;}.cls-8{stroke:#21409a;stroke-width:0.2px;}.cls-9{font-size:6.32px;font-family:HelveticaNeue-Bold, Helvetica Neue;letter-spacing:0em;}.cls-10{letter-spacing:-0.04em;}.cls-11{letter-spacing:0em;}</style></defs><g id="Layer_2" data-name="Layer 2"><g id="Layer_1-2" data-name="Layer 1"><circle class="cls-1" cx="12.24" cy="12.39" r="10.34"/><text class="cls-2" transform="matrix(-0.78, -0.61, 0.62, -0.78, 7.21, 19.47)">D</text><text class="cls-2" transform="matrix(-0.7, -0.7, 0.7, -0.71, 6.41, 18.83)">E</text><text class="cls-2" transform="matrix(-0.63, -0.77, 0.77, -0.63, 5.75, 18.17)">P</text><text class="cls-2" transform="translate(5.25 17.56) rotate(-123.67) scale(0.99 1)">A</text><text class="cls-2" transform="matrix(-0.45, -0.88, 0.89, -0.46, 4.69, 16.74)">R</text><text class="cls-2" transform="matrix(-0.36, -0.92, 0.93, -0.36, 4.25, 15.87)">T</text><text class="cls-2" transform="translate(3.89 14.97) rotate(-103.45) scale(0.99 1)">M</text><text class="cls-2" transform="matrix(-0.11, -0.99, 0.99, -0.11, 3.61, 13.71)">E</text><text class="cls-2" transform="matrix(0.01, -0.99, 1, 0.01, 3.5, 12.75)">N</text><text class="cls-2" transform="matrix(0.12, -0.98, 0.99, 0.12, 3.52, 11.74)">T</text><text class="cls-2" transform="translate(3.65 10.82) rotate(-78.53) scale(0.99 1)"> </text><text class="cls-2" transform="translate(3.71 10.43) rotate(-73.6) scale(0.99 1)">O</text><text class="cls-2" transform="translate(4.02 9.39) rotate(-67.2) scale(0.99 1)">F</text><text class="cls-2" transform="translate(4.35 8.64) rotate(-63.38) scale(0.99 1)"> </text><text class="cls-2" transform="matrix(0.52, -0.85, 0.85, 0.52, 4.51, 8.29)">C</text><text class="cls-2" transform="matrix(0.61, -0.78, 0.78, 0.62, 5.03, 7.43)">O</text><text class="cls-2" transform="matrix(0.72, -0.68, 0.69, 0.72, 5.71, 6.56)">M</text><text class="cls-2" transform="matrix(0.81, -0.57, 0.57, 0.82, 6.67, 5.66)">M</text><text class="cls-2" transform="matrix(0.88, -0.45, 0.46, 0.89, 7.76, 4.91)">U</text><text class="cls-2" transform="translate(8.67 4.45) rotate(-20.52) scale(0.99 1)">N</text><text class="cls-2" transform="translate(9.62 4.11) rotate(-15.37) scale(0.99 1)">I</text><text class="cls-2" transform="matrix(0.97, -0.18, 0.18, 0.98, 10.17, 3.95)">T</text><text class="cls-2" transform="matrix(0.99, -0.07, 0.07, 1, 11.1, 3.78)">Y</text><text class="cls-2" transform="translate(12.09 3.72) rotate(0.41) scale(0.99 1)"> </text><text class="cls-2" transform="matrix(0.99, 0.07, -0.07, 1, 12.44, 3.72)">S</text><text class="cls-2" transform="translate(13.24 3.77) rotate(9.81) scale(0.99 1)">E</text><text class="cls-2" transform="matrix(0.95, 0.28, -0.28, 0.96, 14.19, 3.94)">R</text><text class="cls-2" transform="translate(15.1 4.2) rotate(22.36) scale(0.99 1)">V</text><text class="cls-2" transform="matrix(0.88, 0.46, -0.46, 0.89, 16.05, 4.61)">I</text><text class="cls-2" transform="translate(16.58 4.87) rotate(32.89) scale(0.99 1)">C</text><text class="cls-2" transform="translate(17.42 5.42) rotate(39.23) scale(0.99 1)">E</text><text class="cls-2" transform="translate(18.14 6.03) rotate(43.58) scale(0.99 1)"> </text><text class="cls-2" transform="translate(18.38 6.24) rotate(47.74) scale(0.99 1)">A</text><text class="cls-2" transform="translate(19.07 7) rotate(54.44) scale(0.99 1)">N</text><text class="cls-2" transform="matrix(0.48, 0.87, -0.88, 0.48, 19.66, 7.83)">D</text><text class="cls-2" transform="translate(20.14 8.73) rotate(65.7) scale(0.99 1)"> </text><text class="cls-2" transform="translate(20.31 9.08) rotate(70.34) scale(0.99 1)">D</text><text class="cls-2" transform="translate(20.65 10.03) rotate(76.72) scale(0.99 1)">E</text><text class="cls-2" transform="translate(20.86 10.94) rotate(83.17) scale(0.99 1)">V</text><text class="cls-2" transform="translate(20.98 11.97) rotate(89.9) scale(0.99 1)">E</text><text class="cls-2" transform="matrix(-0.11, 0.99, -0.99, -0.11, 20.98, 12.91)">L</text><text class="cls-2" transform="matrix(-0.22, 0.97, -0.97, -0.22, 20.88, 13.84)">O</text><text class="cls-2" transform="translate(20.62 14.92) rotate(109.52) scale(0.99 1)">P</text><text class="cls-2" transform="translate(20.35 15.73) rotate(116.64) scale(0.99 1)">M</text><text class="cls-2" transform="translate(19.75 16.9) rotate(124.24) scale(0.99 1)">E</text><text class="cls-2" transform="translate(19.21 17.69) rotate(130.83) scale(0.99 1)">N</text><text class="cls-2" transform="matrix(-0.73, 0.67, -0.68, -0.74, 18.55, 18.45)">T</text><text/><circle class="cls-3" cx="12.24" cy="12.39" r="8.09"/><line class="cls-4" x1="4.58" y1="14.66" x2="19.89" y2="14.66"/><line class="cls-5" x1="7.77" y1="5.96" x2="16.56" y2="5.96"/><line class="cls-5" x1="5.89" y1="7.87" x2="18.4" y2="7.87"/><line class="cls-6" x1="4.81" y1="9.89" x2="19.89" y2="9.89"/><line class="cls-4" x1="4.16" y1="12.14" x2="20.2" y2="12.14"/><polygon class="cls-7" points="6.6 15.82 5.55 16.37 5.91 16.89 6.26 17.35 6.93 18.06 7.45 18.52 7.83 18.8 8.13 19 8.45 19.2 8.87 19.42 9.33 19.63 9.71 19.78 9.99 19.88 10.15 19.92 10.3 19.97 10.45 20 10.56 20.03 10.69 20.06 10.8 20.08 10.92 20.1 11.04 20.12 11.18 20.14 11.31 20.16 11.46 20.18 11.65 20.2 11.81 20.21 12.03 20.21 12.23 20.22 12.39 20.22 12.59 20.21 12.8 20.2 12.98 20.18 13.16 20.16 13.32 20.14 13.52 20.11 13.69 20.07 13.85 20.04 14.03 20 14.21 19.95 14.41 19.89 14.61 19.83 14.8 19.77 14.96 19.7 15.16 19.62 15.37 19.53 15.57 19.43 15.8 19.31 16.05 19.18 16.24 19.06 16.49 18.9 17.13 18.41 17.75 17.84 18.1 17.46 18.36 17.16 18.58 16.86 18.85 16.45 19.05 16.14 19.15 15.95 18.14 15.63 13.91 15.08 7.88 15.59 6.6 15.82"/><polygon class="cls-3" points="8.73 17.93 8.78 18.26 8.48 18.1 8.18 18.26 8.24 17.92 8 17.68 8.34 17.64 8.49 17.34 8.63 17.64 8.97 17.69 8.73 17.93"/><polygon class="cls-3" points="9.86 16.46 9.92 16.8 9.62 16.64 9.32 16.79 9.38 16.46 9.14 16.22 9.47 16.17 9.63 15.87 9.77 16.18 10.11 16.23 9.86 16.46"/><polygon class="cls-3" points="11.49 17.78 11.55 18.11 11.25 17.95 10.95 18.11 11.01 17.77 10.77 17.54 11.1 17.49 11.25 17.18 11.4 17.49 11.74 17.54 11.49 17.78"/><polygon class="cls-3" points="13.87 17.71 13.92 18.05 13.62 17.89 13.32 18.04 13.38 17.71 13.14 17.47 13.48 17.42 13.63 17.12 13.78 17.43 14.11 17.48 13.87 17.71"/><polygon class="cls-3" points="16.12 17.93 16.18 18.26 15.88 18.1 15.58 18.26 15.64 17.92 15.4 17.68 15.73 17.64 15.89 17.34 16.03 17.64 16.37 17.69 16.12 17.93"/><polygon class="cls-3" points="7.32 16.6 7.37 16.93 7.07 16.77 6.77 16.93 6.83 16.6 6.59 16.36 6.93 16.31 7.08 16.01 7.23 16.31 7.56 16.36 7.32 16.6"/><polygon class="cls-3" points="12.87 16.17 12.93 16.51 12.63 16.35 12.33 16.5 12.39 16.17 12.15 15.93 12.48 15.88 12.63 15.58 12.78 15.89 13.12 15.94 12.87 16.17"/><polygon class="cls-3" points="18.05 16.6 18.1 16.93 17.8 16.77 17.5 16.93 17.56 16.6 17.32 16.36 17.66 16.31 17.81 16.01 17.96 16.31 18.29 16.36 18.05 16.6"/><polygon class="cls-3" points="15.54 16.58 15.6 16.92 15.3 16.76 15 16.91 15.06 16.58 14.82 16.34 15.15 16.29 15.31 15.99 15.45 16.3 15.79 16.35 15.54 16.58"/><polygon class="cls-3" points="12.78 19.08 12.83 19.41 12.53 19.25 12.23 19.41 12.29 19.08 12.05 18.84 12.39 18.79 12.54 18.49 12.69 18.79 13.02 18.84 12.78 19.08"/><polygon class="cls-3" points="14.84 19.08 14.89 19.41 14.59 19.25 14.29 19.41 14.35 19.08 14.11 18.84 14.45 18.79 14.6 18.49 14.75 18.79 15.08 18.84 14.84 19.08"/><polygon class="cls-3" points="10.35 19.08 10.4 19.41 10.11 19.25 9.8 19.41 9.86 19.08 9.62 18.84 9.96 18.79 10.11 18.49 10.26 18.79 10.59 18.84 10.35 19.08"/><path class="cls-1" d="M15.79,12.85a9.15,9.15,0,0,0-6.73,0,16.85,16.85,0,0,1,.45-1.65,2.94,2.94,0,0,1,1.71-1.66c.17-.08.28-.47.14-.6a.29.29,0,0,1,0-.46,3,3,0,0,1,.43-.25A.33.33,0,0,0,12,8.05a3.68,3.68,0,0,0-.06-.56c0-.18.11-.22.22-.24s.23-.11.23-.28a3,3,0,0,1,.11-.67c0,.24.05.48.07.73,0,.1,0,.17.16.19s.37.08.24.36c-.06.12,0,.29,0,.43a.3.3,0,0,1-.07.15,4.08,4.08,0,0,1,.6.29c.21.14.19.28.05.49s0,.23,0,.36l-.53-.05a2.68,2.68,0,0,0-.49,0,3.7,3.7,0,0,1,1.68.51,2.94,2.94,0,0,1,1.41,1.92C15.59,12.09,15.7,12.48,15.79,12.85Z"/><path class="cls-1" d="M16.85,14.85l-.06-.22h0v.78c-.15-.06-.29-.09-.41-.15a.21.21,0,0,1-.08-.16c0-.19,0-.38,0-.57s0-.37-.34-.48v1.07c-.34-.05-.34-.05-.34-.39v-.55c0-.37,0-.38-.37-.45a2.34,2.34,0,0,1,.09.38c0,.29,0,.57,0,.86-.39,0-.39,0-.39-.36s0-.49,0-.73-.07-.33-.28-.34l-.09,0a1.4,1.4,0,0,1,.09.29c0,.35,0,.7,0,1.07l-.39-.06V13.46l-.38-.07a1.91,1.91,0,0,1,.1.34c0,.35,0,.7,0,1.07l-.39,0V13.36l-.47,0c.2.06.2.2.19.37,0,.35,0,.7,0,1.06h-.39V13.31l-.28,0v1.45h-.38V13.3H12v1.44H11.6a2.48,2.48,0,0,1,.11-1.42l-.42,0v1.43l-.4,0c0-.42,0-.81,0-1.21,0-.07.08-.13.13-.21l-.42.08v1.37l-.4.06a4.75,4.75,0,0,1,.09-1.36l-.17,0c-.14,0-.2.08-.19.23,0,.37,0,.74,0,1.13L9.55,15c0-.37,0-.72,0-1.06,0-.08.11-.16.17-.23h0c-.43.14-.43.14-.43.61v.42c0,.35,0,.35-.4.41.07-.38-.14-.78.14-1.12-.35.12-.41.19-.41.54v.24c0,.47,0,.47-.47.6v-.79h0L8,14.83a.87.87,0,0,1,.06-.93,2,2,0,0,1,.83-.71,6.43,6.43,0,0,1,2.35-.68,9.13,9.13,0,0,1,3.92.34,3.35,3.35,0,0,1,1.47.85A1,1,0,0,1,16.85,14.85Zm-6.08-1.93a11.36,11.36,0,0,1,3.54,0A8.13,8.13,0,0,0,10.77,12.92Z"/><circle class="cls-8" cx="12.26" cy="12.32" r="10.63"/><text class="cls-9" transform="translate(24.99 11.36)">CSBG<tspan class="cls-10"><tspan x="0" y="7.59">W</tspan><tspan class="cls-11" x="5.72" y="7.59">ashington-DC</tspan></tspan></text></g></g></svg>